<svg xmlns="http://www.w3.org/2000/svg" width="126" height="24" viewBox="0 0 126 24">
    <g fill="#000" fill-rule="nonzero">
        <path d="M73.014.018h3.298v23.959h-3.298zM117.301.018h-2.569l-8.729 23.959h3.501l2.501-7.042h8.023l2.502 7.042h3.499L117.301.018zm-4.178 13.685l2.891-8.42 2.896 8.42h-5.787zM91.012 3.259h5.14l3.345 3.346 2.299-2.299L97.503.018H89.66l-6.294 6.293v11.365l6.298 6.301h7.835l4.297-4.295-2.299-2.301-3.345 3.348h-5.14l-4.397-4.399V7.656zM64.67 8.432v-4.01L60.266.017H49.021v23.959H60.51l5.009-5.01v-4.574l-3.404-3.406 2.555-2.554zM52.271 3.245h6.7l2.496 2.495v1.354l-2.562 2.564H52.27V3.245h.001zm10.055 12.488v1.893l-3.127 3.126h-6.933v-7.908h7.175l2.885 2.889zM25.194.018v23.959h3.3v-9.74h5.814l4.243 9.74H42.2l-4.433-9.988 4.493-4.516V4.694L37.589.018H25.194zm13.818 8.13l-2.819 2.822-7.698.001V3.279h7.759l2.759 2.761v2.108h-.001zM14.706 17.355l-3.36 3.335H6.629l-3.348-3.335V.018H0v18.721l5.223 5.238h7.531l5.232-5.238V.018h-3.28z"/>
    </g>
</svg>
